<?xml version="1.0" encoding="UTF-8"?>
<!DOCTYPE svg PUBLIC "-//W3C//DTD SVG 1.1//EN" "http://www.w3.org/Graphics/SVG/1.1/DTD/svg11.dtd">
<svg xmlns="http://www.w3.org/2000/svg" version="1.1" width="1280px" height="1176px" style="shape-rendering:geometricPrecision; text-rendering:geometricPrecision; image-rendering:optimizeQuality; fill-rule:evenodd; clip-rule:evenodd" xmlns:xlink="http://www.w3.org/1999/xlink">
<g><path style="opacity:1" fill="#112489" d="M 622.5,-0.5 C 633.833,-0.5 645.167,-0.5 656.5,-0.5C 803.732,5.49411 931.399,57.9941 1039.5,157C 1019.91,165.196 1000.25,173.196 980.5,181C 978.246,182.15 975.913,182.484 973.5,182C 851.92,84.6785 713.586,46.6785 558.5,68C 399.56,96.1582 277.06,177.992 191,313.5C 147.299,385.773 122.132,464.107 115.5,548.5C 94.5599,555.036 73.5599,561.369 52.5,567.5C 61.8108,385.036 137.144,236.869 278.5,123C 379.846,45.49 494.512,4.32328 622.5,-0.5 Z"/></g>
<g><path style="opacity:1" fill="#112489" d="M 1279.5,201.5 C 1279.5,203.833 1279.5,206.167 1279.5,208.5C 1277.73,215.718 1274.56,222.384 1270,228.5C 1250.83,250.164 1229,268.664 1204.5,284C 1136.23,325.777 1064.23,360.11 988.5,387C 970.316,393.728 951.983,400.061 933.5,406C 923.13,447.984 913.297,490.151 904,532.5C 902.969,535.539 901.135,538.039 898.5,540C 888.986,543.378 879.319,544.378 869.5,543C 866.438,541.939 863.938,540.106 862,537.5C 847.929,505.364 834.429,473.031 821.5,440.5C 735.055,450.741 649.055,463.907 563.5,480C 390.167,542.667 216.833,605.333 43.5,668C 25.9935,673.997 14.4935,668.163 9,650.5C 6.30659,637.185 11.1399,628.019 23.5,623C 159.686,574.05 295.686,524.717 431.5,475C 405.804,469.127 380.137,463.127 354.5,457C 348.71,453.468 348.043,449.135 352.5,444C 360.43,441.468 368.43,439.135 376.5,437C 393.501,437.3 410.501,437.633 427.5,438C 401.612,415.477 375.445,393.311 349,371.5C 347.835,367.316 349.335,364.483 353.5,363C 362.423,359.47 371.423,356.137 380.5,353C 383.167,352.333 385.833,352.333 388.5,353C 437.047,375.126 485.714,396.959 534.5,418.5C 577.736,398.883 620.736,378.716 663.5,358C 678.618,351.52 693.618,344.853 708.5,338C 639.5,298.333 570.5,258.667 501.5,219C 496.995,212.375 497.662,206.375 503.5,201C 514.167,198 524.833,195 535.5,192C 538.833,191.333 542.167,191.333 545.5,192C 646.083,222.139 746.75,251.973 847.5,281.5C 933.104,247.242 1018.77,213.075 1104.5,179C 1143.45,163.875 1183.45,159.709 1224.5,166.5C 1195.54,175.43 1166.54,184.264 1137.5,193C 1143.43,196.421 1149.76,198.421 1156.5,199C 1186.69,189.823 1216.86,180.657 1247,171.5C 1258.2,175.1 1267.54,181.433 1275,190.5C 1276.82,194.157 1278.32,197.824 1279.5,201.5 Z"/></g>
<g><path style="opacity:1" fill="#6f6f6f" d="M -0.5,823.5 C -0.5,820.833 -0.5,818.167 -0.5,815.5C 1.50074,804.98 7.50074,797.48 17.5,793C 230.347,715.829 443.18,638.663 656,561.5C 775.991,599.664 895.824,638.33 1015.5,677.5C 1016.33,768.832 1016.83,860.165 1017,951.5C 1113.46,849.675 1162.62,728.175 1164.5,587C 1164.62,514.62 1150.29,445.287 1121.5,379C 1139.6,370.782 1157.27,361.782 1174.5,352C 1175.79,351.51 1177.13,351.343 1178.5,351.5C 1231.64,479.012 1240.8,609.679 1206,743.5C 1159.21,902.673 1063.71,1022.84 919.5,1104C 777.054,1177.98 628.387,1193.65 473.5,1151C 335.284,1108.52 226.117,1027.35 146,907.5C 132.833,912.333 119.667,917.167 106.5,922C 88.7092,925.698 77.5425,918.865 73,901.5C 72.0763,886.42 78.5763,875.92 92.5,870C 133.392,854.22 174.059,837.887 214.5,821C 225.482,812.776 227.148,803.109 219.5,792C 212.815,787.063 205.482,785.73 197.5,788C 143.156,807.67 88.8223,827.337 34.5,847C 15.9461,849.077 4.27944,841.244 -0.5,823.5 Z M 695.5,643.5 C 786.516,670.339 877.516,697.339 968.5,724.5C 969.833,732.833 969.833,741.167 968.5,749.5C 932.879,738.678 897.212,728.011 861.5,717.5C 860.167,769.167 860.167,820.833 861.5,872.5C 867.381,874.427 873.214,876.427 879,878.5C 879.5,886.493 879.666,894.493 879.5,902.5C 873.404,901.247 867.404,899.58 861.5,897.5C 860.833,951.167 860.167,1004.83 859.5,1058.5C 850.942,1062.07 842.442,1065.74 834,1069.5C 833.833,1009.5 833.333,949.497 832.5,889.5C 826.167,887.5 819.833,885.5 813.5,883.5C 812.167,875.167 812.167,866.833 813.5,858.5C 819.833,860.5 826.167,862.5 832.5,864.5C 833.667,812.837 833.833,761.17 833,709.5C 787.597,695.773 742.097,682.273 696.5,669C 695.517,660.585 695.183,652.085 695.5,643.5 Z M 596.5,669.5 C 598.498,816.163 599.165,963.163 598.5,1110.5C 587.804,1109.79 577.138,1108.79 566.5,1107.5C 566.333,964.833 566.5,822.166 567,679.5C 576.952,676.239 586.785,672.906 596.5,669.5 Z M 504.5,698.5 C 505.833,764.33 506.5,830.497 506.5,897C 506.333,963.167 506.167,1029.33 506,1095.5C 495.911,1092.27 485.744,1089.27 475.5,1086.5C 475.5,960.167 475.5,833.833 475.5,707.5C 485.444,705.072 495.11,702.072 504.5,698.5 Z M 412.5,727.5 C 413.833,782.829 414.5,838.496 414.5,894.5C 414.333,950.167 414.167,1005.83 414,1061.5C 403.841,1056.42 393.841,1051.09 384,1045.5C 383.5,942.501 383.333,839.501 383.5,736.5C 393.444,734.072 403.11,731.072 412.5,727.5 Z M 320.5,756.5 C 321.833,797.661 322.5,839.161 322.5,881C 322.333,922.5 322.167,964 322,1005.5C 311.708,997.543 301.708,989.21 292,980.5C 291.5,908.834 291.333,837.167 291.5,765.5C 301.444,763.072 311.11,760.072 320.5,756.5 Z"/></g>
<g><path style="opacity:1" fill="#112489" d="M 297.5,450.5 C 314.916,450.398 322.416,458.731 320,475.5C 318.262,479.241 315.762,482.408 312.5,485C 267.806,502.121 222.806,518.454 177.5,534C 167.097,536.31 158.597,533.477 152,525.5C 148.67,515.154 151.504,506.988 160.5,501C 206.007,483.445 251.674,466.612 297.5,450.5 Z"/></g>
<g><path style="opacity:1" fill="#112489" d="M 514.5,533.5 C 534.165,532.981 540.999,541.981 535,560.5C 531.358,565.146 526.858,568.646 521.5,571C 421.91,607.197 322.243,643.197 222.5,679C 214.354,681.278 206.354,680.945 198.5,678C 187.9,668.456 187.9,658.79 198.5,649C 202.007,646.746 205.673,644.746 209.5,643C 311.254,606.363 412.92,569.863 514.5,533.5 Z"/></g>
</svg>
